<svg width="683" height="489" viewBox="0 0 683 489" fill="none" xmlns="http://www.w3.org/2000/svg">
<g clip-path="url(#clip0_1_2)">
<rect width="683" height="489" fill="white"/>
<ellipse cx="11.5" cy="25" rx="77.5" ry="72" fill="#D9D9D9"/>
<ellipse cx="16.5" cy="463.5" rx="56.5" ry="54.5" fill="#D9D9D9"/>
<ellipse cx="215.5" cy="354.5" rx="56.5" ry="54.5" fill="#D9D9D9"/>
<ellipse cx="453.5" cy="434.5" rx="56.5" ry="54.5" fill="#D9D9D9"/>
<ellipse cx="584.5" cy="69.5" rx="56.5" ry="54.5" fill="#D9D9D9"/>
<ellipse cx="691.5" cy="345.5" rx="56.5" ry="54.5" fill="#D9D9D9"/>
<ellipse cx="348.5" cy="30.5" rx="56.5" ry="54.5" fill="#D9D9D9"/>
<ellipse cx="446" cy="142" rx="41" ry="40" fill="#D9D9D9"/>
<ellipse cx="162.5" cy="116.5" rx="56.5" ry="54.5" fill="#D9D9D9"/>
<path d="M610.682 215.182V224.273H574.5V215.182H610.682ZM585.045 198.455H595.773V265C595.773 268.03 596.212 270.303 597.091 271.818C598 273.303 599.152 274.303 600.545 274.818C601.97 275.303 603.47 275.545 605.045 275.545C606.227 275.545 607.197 275.485 607.955 275.364C608.712 275.212 609.318 275.091 609.773 275L611.955 284.636C611.227 284.909 610.212 285.182 608.909 285.455C607.606 285.758 605.955 285.909 603.955 285.909C600.924 285.909 597.955 285.258 595.045 283.955C592.167 282.652 589.773 280.667 587.864 278C585.985 275.333 585.045 271.97 585.045 267.909V198.455Z" fill="black"/>
<path d="M537.182 286.455C530.636 286.455 525 284.909 520.273 281.818C515.545 278.727 511.909 274.47 509.364 269.045C506.818 263.621 505.545 257.424 505.545 250.455C505.545 243.364 506.848 237.106 509.455 231.682C512.091 226.227 515.758 221.97 520.455 218.909C525.182 215.818 530.697 214.273 537 214.273C541.909 214.273 546.333 215.182 550.273 217C554.212 218.818 557.439 221.364 559.955 224.636C562.47 227.909 564.03 231.727 564.636 236.091H553.909C553.091 232.909 551.273 230.091 548.455 227.636C545.667 225.152 541.909 223.909 537.182 223.909C533 223.909 529.333 225 526.182 227.182C523.061 229.333 520.621 232.379 518.864 236.318C517.136 240.227 516.273 244.818 516.273 250.091C516.273 255.485 517.121 260.182 518.818 264.182C520.545 268.182 522.97 271.288 526.091 273.5C529.242 275.712 532.939 276.818 537.182 276.818C539.97 276.818 542.5 276.333 544.773 275.364C547.045 274.394 548.97 273 550.545 271.182C552.121 269.364 553.242 267.182 553.909 264.636H564.636C564.03 268.758 562.53 272.47 560.136 275.773C557.773 279.045 554.636 281.652 550.727 283.591C546.848 285.5 542.333 286.455 537.182 286.455Z" fill="black"/>
<path d="M457.239 286.636C452.814 286.636 448.799 285.803 445.193 284.136C441.587 282.439 438.723 280 436.602 276.818C434.481 273.606 433.42 269.727 433.42 265.182C433.42 261.182 434.208 257.939 435.784 255.455C437.36 252.939 439.466 250.97 442.102 249.545C444.739 248.121 447.648 247.061 450.83 246.364C454.042 245.636 457.269 245.061 460.511 244.636C464.754 244.091 468.193 243.682 470.83 243.409C473.496 243.106 475.436 242.606 476.648 241.909C477.89 241.212 478.511 240 478.511 238.273V237.909C478.511 233.424 477.284 229.939 474.83 227.455C472.405 224.97 468.723 223.727 463.784 223.727C458.663 223.727 454.648 224.848 451.739 227.091C448.83 229.333 446.784 231.727 445.602 234.273L435.42 230.636C437.239 226.394 439.663 223.091 442.693 220.727C445.754 218.333 449.087 216.667 452.693 215.727C456.33 214.758 459.905 214.273 463.42 214.273C465.663 214.273 468.239 214.545 471.148 215.091C474.087 215.606 476.92 216.682 479.648 218.318C482.405 219.955 484.693 222.424 486.511 225.727C488.33 229.03 489.239 233.455 489.239 239V285H478.511V275.545H477.966C477.239 277.061 476.027 278.682 474.33 280.409C472.633 282.136 470.375 283.606 467.557 284.818C464.739 286.03 461.299 286.636 457.239 286.636ZM458.875 277C463.117 277 466.693 276.167 469.602 274.5C472.542 272.833 474.754 270.682 476.239 268.045C477.754 265.409 478.511 262.636 478.511 259.727V249.909C478.057 250.455 477.057 250.955 475.511 251.409C473.996 251.833 472.239 252.212 470.239 252.545C468.269 252.848 466.345 253.121 464.466 253.364C462.617 253.576 461.117 253.758 459.966 253.909C457.178 254.273 454.572 254.864 452.148 255.682C449.754 256.47 447.814 257.667 446.33 259.273C444.875 260.848 444.148 263 444.148 265.727C444.148 269.455 445.527 272.273 448.284 274.182C451.072 276.061 454.602 277 458.875 277Z" fill="black"/>
<path d="M391.466 286.455C384.739 286.455 378.936 284.97 374.057 282C369.208 279 365.466 274.818 362.83 269.455C360.223 264.061 358.92 257.788 358.92 250.636C358.92 243.485 360.223 237.182 362.83 231.727C365.466 226.242 369.133 221.97 373.83 218.909C378.557 215.818 384.072 214.273 390.375 214.273C394.011 214.273 397.602 214.879 401.148 216.091C404.693 217.303 407.92 219.273 410.83 222C413.739 224.697 416.057 228.273 417.784 232.727C419.511 237.182 420.375 242.667 420.375 249.182V253.727H366.557V244.455H409.466C409.466 240.515 408.678 237 407.102 233.909C405.557 230.818 403.345 228.379 400.466 226.591C397.617 224.803 394.254 223.909 390.375 223.909C386.102 223.909 382.405 224.97 379.284 227.091C376.193 229.182 373.814 231.909 372.148 235.273C370.481 238.636 369.648 242.242 369.648 246.091V252.273C369.648 257.545 370.557 262.015 372.375 265.682C374.223 269.318 376.784 272.091 380.057 274C383.33 275.879 387.133 276.818 391.466 276.818C394.284 276.818 396.83 276.424 399.102 275.636C401.405 274.818 403.39 273.606 405.057 272C406.723 270.364 408.011 268.333 408.92 265.909L419.284 268.818C418.193 272.333 416.36 275.424 413.784 278.091C411.208 280.727 408.027 282.788 404.239 284.273C400.451 285.727 396.193 286.455 391.466 286.455Z" fill="black"/>
<path d="M282.523 285V191.909H313.977C321.25 191.909 327.22 193.152 331.886 195.636C336.553 198.091 340.008 201.47 342.25 205.773C344.492 210.076 345.614 214.97 345.614 220.455C345.614 225.939 344.492 230.803 342.25 235.045C340.008 239.288 336.568 242.621 331.932 245.045C327.295 247.439 321.371 248.636 314.159 248.636H288.705V238.455H313.795C318.765 238.455 322.765 237.727 325.795 236.273C328.856 234.818 331.068 232.758 332.432 230.091C333.826 227.394 334.523 224.182 334.523 220.455C334.523 216.727 333.826 213.47 332.432 210.682C331.038 207.894 328.811 205.742 325.75 204.227C322.689 202.682 318.644 201.909 313.614 201.909H293.795V285H282.523ZM326.341 243.182L349.25 285H336.159L313.614 243.182H326.341Z" fill="black"/>
<path d="M262.193 233.455V243.455H221.466V233.455H262.193Z" fill="black"/>
<path d="M148.273 285V191.909H179.727C187.03 191.909 193 193.227 197.636 195.864C202.303 198.47 205.758 202 208 206.455C210.242 210.909 211.364 215.879 211.364 221.364C211.364 226.848 210.242 231.833 208 236.318C205.788 240.803 202.364 244.379 197.727 247.045C193.091 249.682 187.152 251 179.909 251H157.364V241H179.545C184.545 241 188.561 240.136 191.591 238.409C194.621 236.682 196.818 234.348 198.182 231.409C199.576 228.439 200.273 225.091 200.273 221.364C200.273 217.636 199.576 214.303 198.182 211.364C196.818 208.424 194.606 206.121 191.545 204.455C188.485 202.758 184.424 201.909 179.364 201.909H159.545V285H148.273Z" fill="black"/>
<path d="M76.2727 285V191.909H87.5455V275H130.818V285H76.2727Z" fill="black"/>
</g>
<defs>
<clipPath id="clip0_1_2">
<rect width="683" height="489" fill="white"/>
</clipPath>
</defs>
</svg>
