<svg width="1" height="1" viewBox="0 0 1 1" fill="none" xmlns="http://www.w3.org/2000/svg">
<path d="M0.263552 0.0200734C0.263552 0.0139033 0.267432 0.00929145 0.266981 0.00286995C0.266444 -0.00476695 0.250706 0.00501266 0.248126 0.00717078C0.232101 0.0205745 0.216323 0.032335 0.209465 0.0509759C0.201591 0.0723781 0.236712 0.059408 0.248317 0.0559139C0.281466 0.0459325 0.318886 0.0372768 0.354206 0.0372768C0.366363 0.0372768 0.361642 0.0422238 0.354206 0.0473121C0.339424 0.0574281 0.324516 0.0668141 0.310784 0.0780553C0.286562 0.0978838 0.260374 0.115877 0.237651 0.136993C0.204915 0.167416 0.176111 0.200626 0.140522 0.228904C0.114996 0.249187 0.0856999 0.267635 0.0628191 0.290072C0.0423827 0.310112 0.0151498 0.331374 0.00301813 0.356178C-0.0110069 0.384852 0.0270263 0.383762 0.0517731 0.380708C0.109624 0.373569 0.160563 0.34329 0.208894 0.318266C0.245733 0.299192 0.282457 0.280967 0.319735 0.262514C0.36305 0.241073 0.405468 0.216334 0.450193 0.197205C0.481335 0.183885 0.515166 0.168802 0.548845 0.160568C0.559579 0.157944 0.583509 0.154091 0.594363 0.159135C0.603271 0.163274 0.603679 0.164404 0.594553 0.172037C0.579283 0.184809 0.568651 0.198162 0.55494 0.212178C0.535229 0.232328 0.509904 0.251008 0.486378 0.26793C0.437719 0.302931 0.390284 0.338895 0.341256 0.3737C0.300161 0.402872 0.257734 0.430692 0.217464 0.460673C0.187689 0.48284 0.151054 0.505912 0.130048 0.534902C0.122974 0.544665 0.110321 0.567694 0.128334 0.574725C0.149188 0.582865 0.177076 0.578697 0.197657 0.572813C0.23506 0.562122 0.270312 0.534092 0.303166 0.516106C0.329287 0.501806 0.357615 0.490535 0.384678 0.477557C0.415675 0.462693 0.444513 0.445061 0.474951 0.429452C0.525097 0.403735 0.575396 0.375557 0.62274 0.346302C0.665683 0.319765 0.705687 0.293747 0.753197 0.272709C0.775372 0.26289 0.796663 0.262345 0.820235 0.256621C0.824597 0.255561 0.871926 0.247517 0.869562 0.25232C0.865191 0.261197 0.848354 0.269546 0.840233 0.275258C0.812412 0.294825 0.796182 0.327423 0.775289 0.351717C0.691345 0.449328 0.584153 0.537495 0.462191 0.601805C0.399255 0.63499 0.328968 0.655004 0.268123 0.691645C0.213561 0.724503 0.173129 0.76961 0.122239 0.805697C0.109817 0.814506 0.102811 0.826095 0.0997663 0.839467C0.0964933 0.853839 0.10175 0.858209 0.114431 0.867183C0.125562 0.875061 0.146517 0.870991 0.158806 0.868936C0.223988 0.858032 0.288577 0.832291 0.347541 0.80729C0.408382 0.781493 0.458308 0.743882 0.510755 0.708052C0.55073 0.680743 0.592985 0.656583 0.637595 0.634937C0.742651 0.58396 0.844105 0.528218 0.952597 0.482336C0.955649 0.481046 1.0032 0.463882 0.999829 0.47023C0.992072 0.484828 0.973238 0.498008 0.962882 0.511964C0.944315 0.536983 0.93188 0.563942 0.91108 0.588105C0.878181 0.626322 0.837877 0.658751 0.796429 0.69037C0.728239 0.74239 0.664884 0.797522 0.594363 0.847431C0.584445 0.85445 0.472196 0.923772 0.491711 0.944758C0.500755 0.954485 0.539543 0.933591 0.548084 0.928829C0.583287 0.9092 0.625112 0.895844 0.663115 0.880245C0.693253 0.867875 0.723597 0.854284 0.755673 0.845838C0.770351 0.841973 0.770909 0.848645 0.770909 0.858741C0.770909 0.887686 0.75172 0.91104 0.735105 0.93536C0.722949 0.953153 0.708833 0.971472 0.704252 0.991908C0.701202 1.00551 0.720386 0.998673 0.726344 0.994935" stroke="white" stroke-width="40" stroke-linecap="round"/>
</svg>
